<?xml version="1.0" encoding="UTF-8" standalone="no"?>
<svg width="561px" height="560px" viewBox="0 0 561 560" version="1.1" xmlns="http://www.w3.org/2000/svg" xmlns:xlink="http://www.w3.org/1999/xlink">
    <!-- Generator: Sketch Beta 39.1 (31721) - http://www.bohemiancoding.com/sketch -->
    <title>Group 3</title>
    <desc>Created with Sketch Beta.</desc>
    <defs>
        <rect id="path-1" x="0" y="0" width="125" height="52.6699982"></rect>
        <mask id="mask-2" maskContentUnits="userSpaceOnUse" maskUnits="objectBoundingBox" x="0" y="0" width="125" height="52.6699982" fill="white">
            <use xlink:href="#path-1"></use>
        </mask>
        <rect id="path-3" x="0" y="109.330002" width="125" height="52.6699982"></rect>
        <mask id="mask-4" maskContentUnits="userSpaceOnUse" maskUnits="objectBoundingBox" x="0" y="0" width="125" height="52.6699982" fill="white">
            <use xlink:href="#path-3"></use>
        </mask>
        <rect id="path-5" x="0" y="182" width="125" height="52.6699982"></rect>
        <mask id="mask-6" maskContentUnits="userSpaceOnUse" maskUnits="objectBoundingBox" x="0" y="0" width="125" height="52.6699982" fill="white">
            <use xlink:href="#path-5"></use>
        </mask>
        <rect id="path-7" x="0" y="254.665001" width="125" height="52.6699982"></rect>
        <mask id="mask-8" maskContentUnits="userSpaceOnUse" maskUnits="objectBoundingBox" x="0" y="0" width="125" height="52.6699982" fill="white">
            <use xlink:href="#path-7"></use>
        </mask>
        <rect id="path-9" x="0" y="63" width="62.5" height="26.3299999"></rect>
        <mask id="mask-10" maskContentUnits="userSpaceOnUse" maskUnits="objectBoundingBox" x="0" y="0" width="62.5" height="26.3299999" fill="white">
            <use xlink:href="#path-9"></use>
        </mask>
        <rect id="path-11" x="0" y="317" width="62.5" height="26.3299999"></rect>
        <mask id="mask-12" maskContentUnits="userSpaceOnUse" maskUnits="objectBoundingBox" x="0" y="0" width="62.5" height="26.3299999" fill="white">
            <use xlink:href="#path-11"></use>
        </mask>
        <rect id="path-13" x="146" y="0" width="125" height="158"></rect>
        <mask id="mask-14" maskContentUnits="userSpaceOnUse" maskUnits="objectBoundingBox" x="0" y="0" width="125" height="158" fill="white">
            <use xlink:href="#path-13"></use>
        </mask>
        <polygon id="path-15" points="0 0 125 0 125 463.299999 0 463.299999"></polygon>
        <rect id="path-17" x="0" y="0" width="125" height="26.3299999"></rect>
        <mask id="mask-18" maskContentUnits="userSpaceOnUse" maskUnits="objectBoundingBox" x="0" y="0" width="125" height="26.3299999" fill="white">
            <use xlink:href="#path-17"></use>
        </mask>
        <rect id="path-19" x="0" y="416.969999" width="125" height="26.3299999"></rect>
        <mask id="mask-20" maskContentUnits="userSpaceOnUse" maskUnits="objectBoundingBox" x="0" y="0" width="125" height="26.3299999" fill="white">
            <use xlink:href="#path-19"></use>
        </mask>
        <rect id="path-21" x="0" y="370.639999" width="125" height="26.3299999"></rect>
        <mask id="mask-22" maskContentUnits="userSpaceOnUse" maskUnits="objectBoundingBox" x="0" y="0" width="125" height="26.3299999" fill="white">
            <use xlink:href="#path-21"></use>
        </mask>
        <rect id="path-23" x="0" y="324.309999" width="125" height="26.3299999"></rect>
        <mask id="mask-24" maskContentUnits="userSpaceOnUse" maskUnits="objectBoundingBox" x="0" y="0" width="125" height="26.3299999" fill="white">
            <use xlink:href="#path-23"></use>
        </mask>
        <rect id="path-25" x="0" y="277.98" width="125" height="26.3299999"></rect>
        <mask id="mask-26" maskContentUnits="userSpaceOnUse" maskUnits="objectBoundingBox" x="0" y="0" width="125" height="26.3299999" fill="white">
            <use xlink:href="#path-25"></use>
        </mask>
        <rect id="path-27" x="0" y="231.65" width="125" height="26.3299999"></rect>
        <mask id="mask-28" maskContentUnits="userSpaceOnUse" maskUnits="objectBoundingBox" x="0" y="0" width="125" height="26.3299999" fill="white">
            <use xlink:href="#path-27"></use>
        </mask>
        <rect id="path-29" x="0" y="185.32" width="125" height="26.3299999"></rect>
        <mask id="mask-30" maskContentUnits="userSpaceOnUse" maskUnits="objectBoundingBox" x="0" y="0" width="125" height="26.3299999" fill="white">
            <use xlink:href="#path-29"></use>
        </mask>
        <rect id="path-31" x="0" y="138.99" width="125" height="26.3299999"></rect>
        <mask id="mask-32" maskContentUnits="userSpaceOnUse" maskUnits="objectBoundingBox" x="0" y="0" width="125" height="26.3299999" fill="white">
            <use xlink:href="#path-31"></use>
        </mask>
        <rect id="path-33" x="0" y="92.6599998" width="125" height="26.3299999"></rect>
        <mask id="mask-34" maskContentUnits="userSpaceOnUse" maskUnits="objectBoundingBox" x="0" y="0" width="125" height="26.3299999" fill="white">
            <use xlink:href="#path-33"></use>
        </mask>
        <rect id="path-35" x="0" y="46.3299999" width="125" height="26.3299999"></rect>
        <mask id="mask-36" maskContentUnits="userSpaceOnUse" maskUnits="objectBoundingBox" x="0" y="0" width="125" height="26.3299999" fill="white">
            <use xlink:href="#path-35"></use>
        </mask>
        <polygon id="path-37" points="0 0 125 0 125 580 0 580"></polygon>
        <rect id="path-39" x="0" y="0" width="125" height="96"></rect>
        <mask id="mask-40" maskContentUnits="userSpaceOnUse" maskUnits="objectBoundingBox" x="0" y="0" width="125" height="96" fill="white">
            <use xlink:href="#path-39"></use>
        </mask>
        <rect id="path-41" x="0" y="464" width="125" height="96"></rect>
        <mask id="mask-42" maskContentUnits="userSpaceOnUse" maskUnits="objectBoundingBox" x="0" y="0" width="125" height="96" fill="white">
            <use xlink:href="#path-41"></use>
        </mask>
        <rect id="path-43" x="0" y="348" width="125" height="96"></rect>
        <mask id="mask-44" maskContentUnits="userSpaceOnUse" maskUnits="objectBoundingBox" x="0" y="0" width="125" height="96" fill="white">
            <use xlink:href="#path-43"></use>
        </mask>
        <rect id="path-45" x="0" y="232" width="125" height="96"></rect>
        <mask id="mask-46" maskContentUnits="userSpaceOnUse" maskUnits="objectBoundingBox" x="0" y="0" width="125" height="96" fill="white">
            <use xlink:href="#path-45"></use>
        </mask>
        <rect id="path-47" x="0" y="116" width="125" height="96"></rect>
        <mask id="mask-48" maskContentUnits="userSpaceOnUse" maskUnits="objectBoundingBox" x="0" y="0" width="125" height="96" fill="white">
            <use xlink:href="#path-47"></use>
        </mask>
    </defs>
    <g id="Page-1" stroke="none" stroke-width="1" fill="none" fill-rule="evenodd">
        <g id="Tablet-Portrait" transform="translate(-20.000000, -20.000000)">
            <g id="Group-3" transform="translate(20.000000, 20.000000)">
                <use id="Rectangle-2" stroke="#0308A2" mask="url(#mask-2)" stroke-width="8" xlink:href="#path-1"></use>
                <use id="Rectangle-2" stroke="#0308A2" mask="url(#mask-4)" stroke-width="8" xlink:href="#path-3"></use>
                <use id="Rectangle-2" stroke="#0308A2" mask="url(#mask-6)" stroke-width="8" xlink:href="#path-5"></use>
                <use id="Rectangle-2" stroke="#0308A2" mask="url(#mask-8)" stroke-width="8" xlink:href="#path-7"></use>
                <use id="Rectangle-2" stroke="#0308A2" mask="url(#mask-10)" stroke-width="8" xlink:href="#path-9"></use>
                <use id="Rectangle-2" stroke="#0308A2" mask="url(#mask-12)" stroke-width="8" xlink:href="#path-11"></use>
                <use id="Rectangle-2" stroke="#0308A2" mask="url(#mask-14)" stroke-width="8" xlink:href="#path-13"></use>
                <g id="Group" transform="translate(291.000000, 0.000000)">
                    <mask id="mask-16" fill="white">
                        <use xlink:href="#path-15"></use>
                    </mask>
                    <g id="Duplicate-control"></g>
                    <g id="Rectangle-2" mask="url(#mask-16)" stroke-width="8" stroke="#0308A2">
                        <use mask="url(#mask-18)" xlink:href="#path-17"></use>
                    </g>
                    <g id="Rectangle-2" mask="url(#mask-16)" stroke-width="8" stroke="#0308A2">
                        <use mask="url(#mask-20)" xlink:href="#path-19"></use>
                    </g>
                    <g id="Rectangle-2" mask="url(#mask-16)" stroke-width="8" stroke="#0308A2">
                        <use mask="url(#mask-22)" xlink:href="#path-21"></use>
                    </g>
                    <g id="Rectangle-2" mask="url(#mask-16)" stroke-width="8" stroke="#0308A2">
                        <use mask="url(#mask-24)" xlink:href="#path-23"></use>
                    </g>
                    <g id="Rectangle-2" mask="url(#mask-16)" stroke-width="8" stroke="#0308A2">
                        <use mask="url(#mask-26)" xlink:href="#path-25"></use>
                    </g>
                    <g id="Rectangle-2" mask="url(#mask-16)" stroke-width="8" stroke="#0308A2">
                        <use mask="url(#mask-28)" xlink:href="#path-27"></use>
                    </g>
                    <g id="Rectangle-2" mask="url(#mask-16)" stroke-width="8" stroke="#0308A2">
                        <use mask="url(#mask-30)" xlink:href="#path-29"></use>
                    </g>
                    <g id="Rectangle-2" mask="url(#mask-16)" stroke-width="8" stroke="#0308A2">
                        <use mask="url(#mask-32)" xlink:href="#path-31"></use>
                    </g>
                    <g id="Rectangle-2" mask="url(#mask-16)" stroke-width="8" stroke="#0308A2">
                        <use mask="url(#mask-34)" xlink:href="#path-33"></use>
                    </g>
                    <g id="Rectangle-2" mask="url(#mask-16)" stroke-width="8" stroke="#0308A2">
                        <use mask="url(#mask-36)" xlink:href="#path-35"></use>
                    </g>
                </g>
                <g id="Group-2" transform="translate(436.000000, 0.000000)">
                    <mask id="mask-38" fill="white">
                        <use xlink:href="#path-37"></use>
                    </mask>
                    <g id="Duplicate-control"></g>
                    <g id="Rectangle-2" mask="url(#mask-38)" stroke-width="8" stroke="#0308A2">
                        <use mask="url(#mask-40)" xlink:href="#path-39"></use>
                    </g>
                    <g id="Rectangle-2" mask="url(#mask-38)" stroke-width="8" stroke="#0308A2">
                        <use mask="url(#mask-42)" xlink:href="#path-41"></use>
                    </g>
                    <g id="Rectangle-2" mask="url(#mask-38)" stroke-width="8" stroke="#0308A2">
                        <use mask="url(#mask-44)" xlink:href="#path-43"></use>
                    </g>
                    <g id="Rectangle-2" mask="url(#mask-38)" stroke-width="8" stroke="#0308A2">
                        <use mask="url(#mask-46)" xlink:href="#path-45"></use>
                    </g>
                    <g id="Rectangle-2" mask="url(#mask-38)" stroke-width="8" stroke="#0308A2">
                        <use mask="url(#mask-48)" xlink:href="#path-47"></use>
                    </g>
                </g>
                <path d="M218.491096,85.9843654 C218.491096,85.6227579 218.209846,85.3415075 217.848238,85.3415075 L214.59377,85.3415075 C214.232162,85.3415075 213.950912,85.6227579 213.950912,85.9843654 L213.950912,89.6205305 L205.633938,89.6205305 L205.633938,82.0066821 L211.761177,82.0066821 C212.122785,82.0066821 212.404035,81.7254318 212.404035,81.3638242 L212.404035,78.7321247 C212.404035,78.3705171 212.122785,78.0892667 211.761177,78.0892667 L205.633938,78.0892667 L205.633938,73.7700652 C205.633938,71.7209556 207.160725,70.3548825 209.430817,70.3548825 C211.459837,70.3548825 213.187518,71.7209556 213.207607,71.7410449 C213.328143,71.8414914 213.508947,71.9017594 213.669662,71.8816701 C213.850465,71.8615808 213.99109,71.7812235 214.111626,71.6405983 L216.180825,69.089256 C216.381718,68.828095 216.361629,68.4463981 216.120557,68.2254157 C216.000021,68.1249692 213.408501,65.714252 209.390639,65.714252 C204.287954,65.714252 200.591521,69.0289881 200.591521,73.6093507 L200.591521,78.0892667 L198.683037,78.0892667 C198.321429,78.0892667 198.040179,78.3705171 198.040179,78.7321247 L198.040179,81.3638242 C198.040179,81.7254318 198.321429,82.0066821 198.683037,82.0066821 L200.591521,82.0066821 L200.591521,89.7008877 L198.642858,89.7008877 C198.28125,89.7008877 198,90.0022274 198,90.3437456 L198,93.3571421 C198,93.7187497 198.28125,94 198.642858,94 L217.848238,94 C218.209846,94 218.491096,93.7187497 218.491096,93.3571421 L218.491096,85.9843654 Z" id="" fill="#0308A2"></path>
                <path d="M346.689743,480.610476 C342.952015,479.832574 340.428574,477.252213 340.428574,475.392836 L340.428574,473.571405 L345.285723,473.571405 C345.285723,476.550204 345.892867,478.864939 346.689743,480.610476 L346.689743,480.610476 Z M367.142892,475.392836 C367.142892,477.252213 364.619451,479.832574 360.881724,480.610476 C361.6786,478.864939 362.285743,476.550204 362.285743,473.571405 L367.142892,473.571405 L367.142892,475.392836 Z M369.571466,472.964262 C369.571466,471.95868 368.755617,471.142831 367.750035,471.142831 L362.285743,471.142831 L362.285743,469.3214 C362.285743,467.651755 360.91967,466.285682 359.250025,466.285682 L348.321441,466.285682 C346.651796,466.285682 345.285723,467.651755 345.285723,469.3214 L345.285723,471.142831 L339.821431,471.142831 C338.815849,471.142831 338,471.95868 338,472.964262 L338,475.392836 C338,478.997751 342.363844,482.982131 348.283494,483.266729 C349.042424,484.234365 349.744434,484.803562 350.085952,485.069187 C351.091533,485.979902 351.357159,486.928564 351.357159,488.142851 C351.357159,489.357139 350.750015,490.571426 348.928584,490.571426 C347.107154,490.571426 345.285723,491.785713 345.285723,493.607144 L345.285723,494.821431 C345.285723,495.162949 345.551348,495.428574 345.892867,495.428574 L361.6786,495.428574 C362.020118,495.428574 362.285743,495.162949 362.285743,494.821431 L362.285743,493.607144 C362.285743,491.785713 360.464312,490.571426 358.642882,490.571426 C356.821451,490.571426 356.214307,489.357139 356.214307,488.142851 C356.214307,486.928564 356.479933,485.979902 357.485514,485.069187 C357.827033,484.803562 358.529042,484.234365 359.287972,483.266729 C365.207622,482.982131 369.571466,478.997751 369.571466,475.392836 L369.571466,472.964262 Z" id="" fill="#0308A2"></path>
                <path d="M512.562533,35.1718466 C512.406283,35.0624715 512.203157,34.9999714 512.000032,34.9999714 C511.828157,34.9999714 511.656282,35.0468464 511.500032,35.1405966 L485.500001,50.1406144 C485.171875,50.3281147 484.984375,50.6874901 485,51.0624905 C485.03125,51.453116 485.265625,51.7812414 485.625001,51.9218666 L491.796883,54.4531196 L508.500028,39.9999774 L495.000012,56.5468721 L495.000012,62.0000036 C495.000012,62.4218791 495.265637,62.7968795 495.656263,62.9375047 C495.765638,62.9843797 495.890638,63.0000048 496.000013,63.0000048 C496.296888,63.0000048 496.578139,62.8750046 496.765639,62.6406293 L500.546894,58.0312488 L507.625027,60.9218773 C507.750027,60.9687523 507.875027,61.0000024 508.000027,61.0000024 C508.171903,61.0000024 508.343778,60.9531273 508.484403,60.8750022 C508.750028,60.718752 508.937529,60.4687518 508.984404,60.1718764 L512.984408,36.1718478 C513.046908,35.7812223 512.890658,35.4062219 512.562533,35.1718466 L512.562533,35.1718466 Z" id="" fill="#0308A2"></path>
            </g>
        </g>
    </g>
</svg>