<?xml version="1.0" encoding="UTF-8" standalone="no"?>
<svg width="560px" height="560px" viewBox="0 0 560 560" version="1.1" xmlns="http://www.w3.org/2000/svg" xmlns:xlink="http://www.w3.org/1999/xlink">
    <!-- Generator: Sketch Beta 39.1 (31721) - http://www.bohemiancoding.com/sketch -->
    <title>Group</title>
    <desc>Created with Sketch Beta.</desc>
    <defs>
        <rect id="path-1" x="0" y="0" width="270" height="158"></rect>
        <mask id="mask-2" maskContentUnits="userSpaceOnUse" maskUnits="objectBoundingBox" x="0" y="0" width="270" height="158" fill="white">
            <use xlink:href="#path-1"></use>
        </mask>
        <rect id="path-3" x="0" y="178" width="270" height="79"></rect>
        <mask id="mask-4" maskContentUnits="userSpaceOnUse" maskUnits="objectBoundingBox" x="0" y="0" width="270" height="79" fill="white">
            <use xlink:href="#path-3"></use>
        </mask>
        <rect id="path-5" x="380" y="198" width="156" height="19.75"></rect>
        <mask id="mask-6" maskContentUnits="userSpaceOnUse" maskUnits="objectBoundingBox" x="0" y="0" width="156" height="19.75" fill="white">
            <use xlink:href="#path-5"></use>
        </mask>
        <rect id="path-7" x="0" y="277" width="125" height="125"></rect>
        <mask id="mask-8" maskContentUnits="userSpaceOnUse" maskUnits="objectBoundingBox" x="0" y="0" width="125" height="125" fill="white">
            <use xlink:href="#path-7"></use>
        </mask>
        <rect id="path-9" x="145" y="277" width="125" height="125"></rect>
        <mask id="mask-10" maskContentUnits="userSpaceOnUse" maskUnits="objectBoundingBox" x="0" y="0" width="125" height="125" fill="white">
            <use xlink:href="#path-9"></use>
        </mask>
        <rect id="path-11" x="310" y="198" width="50" height="50"></rect>
        <mask id="mask-12" maskContentUnits="userSpaceOnUse" maskUnits="objectBoundingBox" x="0" y="0" width="50" height="50" fill="white">
            <use xlink:href="#path-11"></use>
        </mask>
        <rect id="path-13" x="290" y="0" width="270" height="158"></rect>
        <mask id="mask-14" maskContentUnits="userSpaceOnUse" maskUnits="objectBoundingBox" x="0" y="0" width="270" height="158" fill="white">
            <use xlink:href="#path-13"></use>
        </mask>
        <rect id="path-15" x="290" y="178" width="270" height="382"></rect>
        <mask id="mask-16" maskContentUnits="userSpaceOnUse" maskUnits="objectBoundingBox" x="0" y="0" width="270" height="382" fill="white">
            <use xlink:href="#path-15"></use>
        </mask>
    </defs>
    <g id="Page-1" stroke="none" stroke-width="1" fill="none" fill-rule="evenodd">
        <g id="Tablet-Portrait" transform="translate(-20.000000, -20.000000)">
            <g id="Group" transform="translate(20.000000, 20.000000)">
                <use id="Rectangle-2" stroke="#0308A2" mask="url(#mask-2)" stroke-width="8" xlink:href="#path-1"></use>
                <use id="Rectangle-2" stroke="#0308A2" mask="url(#mask-4)" stroke-width="8" xlink:href="#path-3"></use>
                <use id="Rectangle-2" stroke="#0308A2" mask="url(#mask-6)" stroke-width="8" xlink:href="#path-5"></use>
                <use id="Rectangle-2" stroke="#0308A2" mask="url(#mask-8)" stroke-width="8" xlink:href="#path-7"></use>
                <use id="Rectangle-2" stroke="#0308A2" mask="url(#mask-10)" stroke-width="8" xlink:href="#path-9"></use>
                <use id="Rectangle-2" stroke="#0308A2" mask="url(#mask-12)" stroke-width="8" xlink:href="#path-11"></use>
                <use id="Rectangle-2" stroke="#0308A2" mask="url(#mask-14)" stroke-width="8" xlink:href="#path-13"></use>
                <use id="Rectangle-2" stroke="#0308A2" mask="url(#mask-16)" stroke-width="8" xlink:href="#path-15"></use>
                <polygon id="Triangle" stroke="#0308A2" stroke-width="4" points="115 103.846154 115 54 155 78.9230769"></polygon>
                <path d="M434.265648,61.3838921 C433.723237,61.3035348 431.854931,61.1428204 429.685285,61.1428204 C425.145101,61.1428204 422.031258,63.9151451 422.031258,68.9977404 L422.031258,73.3772099 L416.908484,73.3772099 L416.908484,79.3236456 L422.031258,79.3236456 L422.031258,94.5714316 L428.178587,94.5714316 L428.178587,79.3236456 L433.281272,79.3236456 L434.064755,73.3772099 L428.178587,73.3772099 L428.178587,69.5803304 C428.178587,67.8727391 428.640641,66.6874698 431.111626,66.6874698 L434.265648,66.6874698 L434.265648,61.3838921 Z" id="" fill="#0308A2"></path>
            </g>
        </g>
    </g>
</svg>