<?xml version="1.0" encoding="UTF-8" standalone="no"?>
<svg width="105px" height="65px" viewBox="0 0 105 65" version="1.1" xmlns="http://www.w3.org/2000/svg" xmlns:xlink="http://www.w3.org/1999/xlink">
    <!-- Generator: Sketch Beta 39.1 (31721) - http://www.bohemiancoding.com/sketch -->
    <title>Group 3</title>
    <desc>Created with Sketch Beta.</desc>
    <defs></defs>
    <g id="Page-1" stroke="none" stroke-width="1" fill="none" fill-rule="evenodd">
        <g id="Group-3">
            <rect id="Rectangle-3" fill="#FFFFFF" x="0" y="0" width="105" height="65"></rect>
            <path d="M6.76194429,34.8854124 C7.93329633,37.183807 10.2070021,38.8992129 12.414634,40.8487253 C14.2975835,42.5115176 16.8167756,44.8063848 18.9999996,46.1317383 C21.1433225,47.4328694 23.4890731,47.7798507 26.1505974,47.7798507 C29.8192627,47.7798507 33.3658165,47.2232542 36.2211674,45.2018902 C38.3804325,43.6733003 41.1195473,41.5021731 42.7905188,39.5485468 C44.5283867,37.5167082 45.5066851,35.2921766 46.5260016,33.0747443 C47.3585452,31.2636199 47.3082068,29.0026841 47.3082068,26.6489855 C47.3082068,23.5215674 47.2083774,20.7910981 45.7679449,18.339934 C44.5394819,16.2494754 42.1126342,14.362167 40.3718181,12.6050335 C38.5501807,10.7663212 36.577733,9.7437069 34.3782185,8.60419894 C31.9473402,7.34482778 29.2391133,6.06343284 26.1505974,6.06343284 C23.1077433,6.06343284 20.4836218,7.5900305 18.1398558,8.81268562 C15.7587531,10.054818 13.6670093,11.0095154 11.7195284,13.1086644 C10.0362292,14.9230575 8.54138715,16.2982517 7.44360955,18.420644 C6.26083422,20.7073669 5.53899083,23.773761 5.53899083,26.6489855 C5.53899083,29.7789018 5.60705498,32.6193205 6.76194429,34.8854124 Z" id="Oval" fill="#FCEFE6" transform="translate(26.423892, 26.921642) scale(1, -1) translate(-26.423892, -26.921642) "></path>
            <path d="M58.5394672,45.7995915 C59.7108193,48.0979861 61.984525,49.813392 64.192157,51.7629044 C66.0751065,53.4256967 68.5942985,55.7205639 70.7775225,57.0459174 C72.9208455,58.3470485 75.266596,58.6940299 77.9281203,58.6940299 C81.5967857,58.6940299 85.1433394,58.1374333 87.9986904,56.1160693 C90.1579554,54.5874794 92.8970702,52.4163522 94.5680417,50.4627259 C96.3059096,48.4308873 97.284208,46.2063557 98.3035246,43.9889234 C99.1360681,42.177799 99.0857297,39.9168632 99.0857297,37.5631646 C99.0857297,34.4357465 98.9859004,31.7052772 97.5454679,29.2541131 C96.3170049,27.1636545 93.8901571,25.2763461 92.149341,23.5192126 C90.3277037,21.6805003 88.3552559,20.657886 86.1557414,19.518378 C83.7248632,18.2590069 81.0166362,16.9776119 77.9281203,16.9776119 C74.8852662,16.9776119 72.2611447,18.5042096 69.9173788,19.7268647 C67.536276,20.9689971 65.4445322,21.9236945 63.4970514,24.0228435 C61.8137521,25.8372366 60.3189101,27.2124308 59.2211325,29.3348231 C58.0383572,31.621546 57.3165138,34.6879401 57.3165138,37.5631646 C57.3165138,40.6930809 57.3845779,43.5334996 58.5394672,45.7995915 Z" id="Oval" fill="#FCEFE6" transform="translate(78.201415, 37.835821) scale(1, -1) translate(-78.201415, -37.835821) "></path>
        </g>
    </g>
</svg>