<?xml version="1.0" encoding="UTF-8" standalone="no"?>
<svg width="3020px" height="591px" viewBox="0 0 3020 591" version="1.1" xmlns="http://www.w3.org/2000/svg" xmlns:xlink="http://www.w3.org/1999/xlink">
    <!-- Generator: Sketch Beta 39.1 (31721) - http://www.bohemiancoding.com/sketch -->
    <title>principles</title>
    <desc>Created with Sketch Beta.</desc>
    <defs></defs>
    <g id="Page-1" stroke="none" stroke-width="1" fill="none" fill-rule="evenodd">
        <path d="M277.380275,146.079566 C277.380275,31.2371919 156.58311,0.612558711 65.559895,0.612558711 C34.9352618,0.612558711 -1.64416119,1.46324297 0.0572073189,49.1015613 C0.907891575,98.4412481 3.45994434,148.631619 5.16131285,196.269938 C8.56404988,282.189047 10.2654184,367.257473 10.2654184,453.176583 C10.2654184,464.235478 9.41473413,476.145058 9.41473413,488.054637 L9.41473413,539.946377 C11.9667869,568.018957 28.980472,586.734011 58.754421,586.734011 C87.6776857,586.734011 104.691371,568.018957 106.392739,540.797061 C107.243424,531.439534 107.243424,517.828586 107.243424,508.471059 L107.243424,453.176583 C107.243424,414.895791 107.243424,374.913631 106.392739,336.63284 C188.909112,308.560259 277.380275,241.356203 277.380275,146.079566 L277.380275,146.079566 Z M180.40227,146.079566 C180.40227,184.360358 142.121478,213.283623 104.691371,231.998676 C103.840687,180.957621 102.139318,145.228882 99.5872652,98.4412481 C134.46532,101.843985 180.40227,113.753565 180.40227,146.079566 L180.40227,146.079566 Z M668.695032,539.946377 C668.695032,529.738166 665.292295,521.231323 661.038874,511.873796 L640.622452,482.099847 C636.369031,476.995742 632.966294,468.488899 628.712872,463.384794 L629.563557,464.235478 C591.282765,407.239633 549.599236,351.094472 500.25955,300.904101 C553.001973,266.026046 596.386871,214.984991 596.386871,146.079566 C596.386871,31.2371919 474.739022,0.612558711 384.566491,0.612558711 C355.643226,0.612558711 317.362435,1.46324297 319.063803,49.1015613 C319.914487,98.4412481 322.46654,148.631619 324.167909,196.269938 C326.719961,282.189047 329.272014,367.257473 329.272014,453.176583 C329.272014,464.235478 328.42133,476.145058 328.42133,488.054637 C328.42133,505.068322 327.570646,522.932692 328.42133,539.946377 C330.973383,568.018957 347.136384,586.734011 377.761017,586.734011 C407.534966,586.734011 423.697967,568.869641 426.250019,540.797061 C427.100704,522.932692 426.250019,500.814901 426.250019,480.398479 L426.250019,363.004052 C461.978758,398.73279 500.25955,448.072477 530.033499,490.60669 L555.554026,529.738166 L555.554026,528.887481 C563.210185,542.49843 573.418396,556.960062 581.925238,568.869641 C591.282765,581.629905 601.490976,590.136748 619.355345,590.136748 C645.726557,590.136748 668.695032,565.466904 668.695032,539.946377 L668.695032,539.946377 Z M499.408865,146.079566 C499.408865,184.360358 461.128074,213.283623 423.697967,231.998676 C421.996598,180.106937 421.145914,147.780935 419.444545,99.2919324 C453.471916,103.545354 499.408865,114.604249 499.408865,146.079566 L499.408865,146.079566 Z M748.659352,590.987432 C779.283985,590.987432 794.596302,573.123063 797.148355,545.050482 C798.849723,533.991587 797.999039,519.529955 797.999039,507.620375 L797.999039,497.412164 C798.849723,478.69711 798.849723,459.982057 798.849723,441.267003 C798.849723,423.402634 799.700408,403.836896 799.700408,385.972527 C800.551092,315.365733 803.953829,240.505519 806.505882,169.898726 C807.356566,133.319303 808.20725,95.8891953 809.057934,58.4590881 C809.057934,27.8344549 786.940144,8.26871701 760.568932,8.26871701 C730.794983,8.26871701 717.184035,26.1330864 712.079929,53.3549826 C710.378561,66.9659307 710.378561,84.8303 710.378561,100.142617 C710.378561,104.396038 709.527877,111.201512 709.527877,115.454933 C707.826508,148.631619 706.12514,191.165832 705.274455,225.193202 C703.573087,288.143837 702.722402,368.108157 701.871718,431.909476 C701.021034,468.488899 700.17035,505.068322 700.17035,542.49843 C700.17035,571.421694 719.736088,590.987432 748.659352,590.987432 L748.659352,590.987432 Z M1196.96996,80.5768787 C1196.96996,52.5042983 1177.40422,32.0878762 1148.48095,32.0878762 C1119.55769,32.0878762 1099.99195,52.5042983 1099.99195,80.5768787 C1099.99195,157.989146 1099.14127,235.401413 1097.4399,312.813681 L1097.4399,320.469839 C1048.95089,215.835675 1023.43037,162.242567 976.642733,61.0111409 C968.986575,43.9974557 951.972889,26.9837706 930.705783,26.9837706 C900.08115,26.9837706 884.768833,54.2056668 884.768833,80.5768787 C884.768833,178.405568 882.21678,276.234258 878.814043,373.212263 C878.814043,386.823211 877.963359,399.583475 877.112675,413.194423 C875.411306,454.027267 874.560622,496.56148 874.560622,537.394324 C874.560622,564.61622 894.12636,585.883327 923.049625,585.883327 C953.674258,585.883327 968.986575,567.168273 971.538627,540.797061 C972.389312,535.692956 972.389312,528.036797 972.389312,521.231323 L972.389312,505.919007 C972.389312,485.502584 974.09068,451.475214 974.09068,431.058792 L976.642733,329.827366 C976.642733,318.76847 976.642733,305.157522 977.493417,293.247943 C1024.28105,397.031422 1051.50295,452.325898 1097.4399,552.706641 C1105.94674,569.720326 1121.25906,586.734011 1143.37685,586.734011 C1175.70285,586.734011 1187.61243,560.362799 1190.16448,534.842271 C1191.01517,525.484744 1191.01517,498.262848 1191.01517,488.054637 L1192.71653,384.271158 C1195.26859,283.039732 1196.96996,181.808305 1196.96996,80.5768787 L1196.96996,80.5768787 Z M1418.14786,585.883327 C1503.21629,585.883327 1544.89982,519.529955 1567.01761,448.072477 C1569.56966,443.819056 1571.27103,436.162898 1571.27103,431.058792 C1571.27103,403.836896 1546.60118,383.420474 1521.08066,383.420474 C1496.41081,383.420474 1483.65055,397.031422 1475.99439,416.59716 L1472.59165,425.954687 L1472.59165,425.104002 C1461.53276,454.877951 1448.77249,488.905321 1418.14786,488.905321 C1407.93965,488.905321 1397.73144,485.502584 1389.2246,478.69711 C1349.24244,446.371109 1341.58628,371.510894 1341.58628,321.320523 C1341.58628,274.532889 1351.79449,106.097406 1412.19307,106.097406 C1433.46018,106.097406 1451.32455,115.454933 1464.08481,133.319303 L1464.08481,132.468618 C1473.44234,146.930251 1482.79986,157.138462 1504.06697,157.138462 C1529.5875,157.138462 1553.40666,135.020671 1553.40666,107.798775 C1553.40666,100.142617 1550.85461,90.7850898 1546.60118,81.427563 C1521.93134,37.1919817 1465.78618,9.11940127 1414.74512,9.11940127 C1273.53154,9.11940127 1244.60827,222.641149 1244.60827,321.320523 C1244.60827,426.805371 1280.33701,585.883327 1418.14786,585.883327 L1418.14786,585.883327 Z M1665.69698,590.987432 C1696.32161,590.987432 1711.63393,573.123063 1714.18598,545.050482 C1715.88735,533.991587 1715.03667,519.529955 1715.03667,507.620375 L1715.03667,497.412164 C1715.88735,478.69711 1715.88735,459.982057 1715.88735,441.267003 C1715.88735,423.402634 1716.73804,403.836896 1716.73804,385.972527 C1717.58872,315.365733 1720.99146,240.505519 1723.54351,169.898726 C1724.39419,133.319303 1725.24488,95.8891953 1726.09556,58.4590881 C1726.09556,27.8344549 1703.97777,8.26871701 1677.60656,8.26871701 C1647.83261,8.26871701 1634.22166,26.1330864 1629.11756,53.3549826 C1627.41619,66.9659307 1627.41619,84.8303 1627.41619,100.142617 C1627.41619,104.396038 1626.5655,111.201512 1626.5655,115.454933 C1624.86414,148.631619 1623.16277,191.165832 1622.31208,225.193202 C1620.61071,288.143837 1619.76003,368.108157 1618.90935,431.909476 C1618.05866,468.488899 1617.20798,505.068322 1617.20798,542.49843 C1617.20798,571.421694 1636.77372,590.987432 1665.69698,590.987432 L1665.69698,590.987432 Z M2068.07063,146.079566 C2068.07063,31.2371919 1947.27347,0.612558711 1856.25025,0.612558711 C1825.62562,0.612558711 1789.0462,1.46324297 1790.74757,49.1015613 C1791.59825,98.4412481 1794.1503,148.631619 1795.85167,196.269938 C1799.25441,282.189047 1800.95578,367.257473 1800.95578,453.176583 C1800.95578,464.235478 1800.10509,476.145058 1800.10509,488.054637 L1800.10509,539.946377 C1802.65715,568.018957 1819.67083,586.734011 1849.44478,586.734011 C1878.36804,586.734011 1895.38173,568.018957 1897.0831,540.797061 C1897.93378,531.439534 1897.93378,517.828586 1897.93378,508.471059 L1897.93378,453.176583 C1897.93378,414.895791 1897.93378,374.913631 1897.0831,336.63284 C1979.59947,308.560259 2068.07063,241.356203 2068.07063,146.079566 L2068.07063,146.079566 Z M1971.09263,146.079566 C1971.09263,184.360358 1932.81184,213.283623 1895.38173,231.998676 C1894.53104,180.957621 1892.82968,145.228882 1890.27762,98.4412481 C1925.15568,101.843985 1971.09263,113.753565 1971.09263,146.079566 L1971.09263,146.079566 Z M2245.86364,590.136748 C2279.89101,590.136748 2320.72386,589.286064 2353.90054,584.181958 C2379.42107,579.077853 2396.43476,563.765536 2396.43476,535.692956 C2396.43476,509.321744 2376.86902,487.203953 2348.79644,487.203953 L2342.84165,487.203953 C2311.36633,490.60669 2280.7417,493.158743 2250.11706,493.158743 C2234.80475,493.158743 2220.34311,492.308058 2205.0308,491.457374 C2207.58285,344.288998 2211.83627,198.82199 2216.08969,52.5042983 C2216.08969,22.7303494 2194.82259,0.612558711 2168.45137,0.612558711 C2139.52811,0.612558711 2122.51443,19.3276123 2119.96237,45.6988243 C2118.261,65.2645621 2117.41032,87.3823528 2116.55964,107.798775 C2114.85827,151.183672 2113.1569,205.627464 2112.30621,249.863046 C2110.60485,308.560259 2109.75416,381.719105 2109.75416,440.416319 C2108.90348,471.891636 2108.05279,503.366954 2108.05279,533.991587 C2108.05279,565.466904 2125.91716,580.779221 2153.98974,584.181958 C2183.76369,587.584695 2215.23901,590.136748 2245.86364,590.136748 L2245.86364,590.136748 Z M2718.84409,64.4138779 C2718.84409,37.1919817 2700.97972,19.3276123 2673.75782,16.7755596 C2655.89345,15.0741911 2636.32772,15.0741911 2617.61266,15.0741911 L2604.00171,15.0741911 C2575.92913,15.0741911 2547.85655,15.0741911 2521.48534,17.6262438 C2512.9785,13.3728225 2503.62097,10.8207698 2495.96481,10.8207698 C2468.74292,10.8207698 2450.87855,28.6851391 2448.3265,53.3549826 C2438.11828,127.364513 2433.01418,205.627464 2428.76076,280.487679 C2423.65665,363.854736 2418.55255,449.773846 2418.55255,533.991587 C2418.55255,573.123063 2445.77444,585.032642 2477.24976,585.032642 C2512.9785,585.032642 2554.66203,584.181958 2590.39077,582.48059 L2618.46335,580.779221 C2629.52224,580.779221 2638.87977,579.928537 2648.2373,579.077853 C2674.60851,575.675116 2693.32356,558.66143 2693.32356,530.58885 C2693.32356,503.366954 2672.05645,480.398479 2643.98387,482.099847 L2585.28666,484.6519 C2562.31819,486.353269 2539.34971,487.203953 2516.38124,488.054637 C2518.0826,430.208108 2519.78397,385.972527 2523.18671,329.827366 C2552.96066,331.528734 2566.57161,332.379418 2596.34556,332.379418 C2628.67156,332.379418 2668.65372,334.931471 2668.65372,283.890416 C2668.65372,254.967151 2648.2373,235.401413 2618.46335,235.401413 C2589.54008,235.401413 2558.06476,235.401413 2529.1415,233.700045 L2532.54424,199.672675 L2538.49903,113.753565 C2565.72092,111.201512 2576.77982,112.052196 2604.00171,112.052196 C2612.50856,112.052196 2627.82087,112.90288 2636.32772,112.90288 C2647.38661,113.753565 2660.14687,113.753565 2671.20577,113.753565 C2699.27835,113.753565 2718.84409,92.4864583 2718.84409,64.4138779 L2718.84409,64.4138779 Z M2846.44673,584.181958 C2957.03568,584.181958 3019.13563,501.665585 3019.13563,397.031422 C3019.13563,300.053417 2963.84115,269.428783 2912.8001,240.505519 C2878.77273,220.939781 2847.29741,202.224727 2847.29741,161.391883 C2847.29741,129.916566 2859.20699,100.993301 2892.38368,100.993301 C2901.7412,100.993301 2907.69599,103.545354 2914.50147,105.246722 C2923.00831,107.798775 2932.36584,109.500143 2940.02199,109.500143 C2968.09458,109.500143 2987.66031,84.8303 2987.66031,60.1604566 C2987.66031,38.042666 2973.19868,21.8796651 2954.48363,15.0741911 C2935.76857,8.26871701 2911.94941,3.16461148 2890.68231,3.16461148 C2798.80841,3.16461148 2750.31941,80.5768787 2750.31941,163.093252 C2750.31941,255.817835 2804.7632,287.293153 2854.95357,316.216418 C2890.68231,336.63284 2923.00831,355.347893 2923.00831,398.73279 C2923.00831,448.923161 2898.33847,487.203953 2846.44673,487.203953 C2833.68646,487.203953 2820.9262,484.6519 2806.46457,481.249163 L2807.31525,482.099847 C2801.36046,480.398479 2797.10704,480.398479 2794.55499,480.398479 C2765.63172,480.398479 2746.91667,504.217638 2746.91667,529.738166 C2746.91667,552.706641 2762.22899,568.869641 2783.49609,575.675116 C2803.06183,582.48059 2826.0303,584.181958 2846.44673,584.181958 L2846.44673,584.181958 Z" id="principles" fill="#FCEFE6"></path>
    </g>
</svg>