<?xml version="1.0" encoding="UTF-8" standalone="no"?>
<svg width="3012px" height="595px" viewBox="0 0 3012 595" version="1.1" xmlns="http://www.w3.org/2000/svg" xmlns:xlink="http://www.w3.org/1999/xlink">
    <!-- Generator: Sketch Beta 39.1 (31721) - http://www.bohemiancoding.com/sketch -->
    <title>processes</title>
    <desc>Created with Sketch Beta.</desc>
    <defs></defs>
    <g id="Page-1" stroke="none" stroke-width="1" fill="none" fill-rule="evenodd">
        <path d="M277.89505,145.736972 C277.89505,30.6814678 156.873705,0 65.6815642,0 C35.0000963,0 -1.6472125,0.852262996 0.0573134869,48.5789908 C0.909576483,98.0102445 3.46636547,148.293761 5.17089146,196.020489 C8.57994344,282.099052 10.2844694,367.325351 10.2844694,453.403914 C10.2844694,464.483333 9.43220644,476.415015 9.43220644,488.346697 L9.43220644,540.334739 C11.9889954,568.459418 29.0342553,587.209204 58.8634602,587.209204 C87.840402,587.209204 104.885662,568.459418 106.590188,541.187002 C107.442451,531.812109 107.442451,518.175901 107.442451,508.801008 L107.442451,453.403914 C107.442451,415.052079 107.442451,374.995718 106.590188,336.643883 C189.259699,308.519204 277.89505,241.190428 277.89505,145.736972 L277.89505,145.736972 Z M180.737069,145.736972 C180.737069,184.088807 142.385234,213.065749 104.885662,231.815535 C104.033399,180.679755 102.328873,144.884709 99.772084,98.0102445 C134.714867,101.419296 180.737069,113.350978 180.737069,145.736972 L180.737069,145.736972 Z M669.936028,540.334739 C669.936028,530.107583 666.526976,521.584953 662.265661,512.21006 L641.811349,482.380856 C637.550034,477.267278 634.140982,468.744648 629.879667,463.63107 L630.73193,464.483333 C592.380095,407.381712 550.619209,351.132354 501.187955,300.848837 C554.028261,265.906055 597.493673,214.770275 597.493673,145.736972 C597.493673,30.6814678 475.620065,0 385.280188,0 C356.303246,0 317.951411,0.852262996 319.655937,48.5789908 C320.5082,98.0102445 323.064989,148.293761 324.769515,196.020489 C327.326304,282.099052 329.883093,367.325351 329.883093,453.403914 C329.883093,464.483333 329.03083,476.415015 329.03083,488.346697 C329.03083,505.391956 328.178567,523.289479 329.03083,540.334739 C331.587619,568.459418 347.780616,587.209204 378.462084,587.209204 C408.291288,587.209204 424.484285,569.311681 427.041074,541.187002 C427.893337,523.289479 427.041074,501.130641 427.041074,480.67633 L427.041074,363.064036 C462.83612,398.859082 501.187955,448.290336 531.01716,490.903485 L556.58505,530.107583 L556.58505,529.25532 C564.255417,542.891528 574.482573,557.379999 583.005203,569.311681 C592.380095,582.095626 602.607251,590.618256 620.504774,590.618256 C646.924927,590.618256 669.936028,565.902629 669.936028,540.334739 L669.936028,540.334739 Z M500.335692,145.736972 C500.335692,184.088807 461.983857,213.065749 424.484285,231.815535 C422.779759,179.827492 421.927496,147.441498 420.22297,98.8625075 C454.31349,103.123822 500.335692,114.203241 500.335692,145.736972 L500.335692,145.736972 Z M1043.22722,302.553363 C1043.22722,266.758318 1038.96591,231.815535 1032.1478,198.577278 C1016.80707,126.987186 971.637129,11.0794189 878.740462,11.0794189 C848.058994,11.0794189 819.934315,20.4543119 794.366425,38.3518348 C721.071808,93.7489295 700.617496,207.952171 700.617496,291.473945 C700.617496,352.83688 710.844652,436.358654 737.264805,493.460274 C757.719117,541.187002 794.366425,594.027308 855.729361,594.027308 C936.694346,594.027308 987.830125,520.73269 1015.9548,454.256177 C1033.85233,406.529449 1043.22722,352.83688 1043.22722,302.553363 L1043.22722,302.553363 Z M946.069239,302.553363 C946.069239,361.35951 931.580768,439.767706 886.410829,480.67633 C877.888199,489.198959 866.80878,496.869326 855.729361,496.869326 C846.354468,496.869326 831.013734,464.483333 825.047893,453.403914 C804.593581,413.347553 797.775477,332.382568 797.775477,287.21263 C797.775477,232.667798 805.445844,149.998287 852.320309,117.612293 C859.138413,112.498715 868.513306,108.2374 878.740462,108.2374 C882.149514,108.2374 888.967618,114.203241 892.37667,117.612293 C932.433031,159.37318 946.069239,244.59948 946.069239,302.553363 L946.069239,302.553363 Z M1268.22465,586.356941 C1353.45095,586.356941 1395.21184,519.880427 1417.37068,448.290336 C1419.92746,444.029021 1421.63199,436.358654 1421.63199,431.245076 C1421.63199,403.97266 1396.91636,383.518348 1371.34847,383.518348 C1346.63285,383.518348 1333.8489,397.154556 1326.17853,416.756605 L1322.76948,426.131498 L1322.76948,425.279235 C1311.69006,455.10844 1298.90612,489.198959 1268.22465,489.198959 C1257.9975,489.198959 1247.77034,485.789908 1239.24771,478.971804 C1199.19135,446.58581 1191.52098,371.586666 1191.52098,321.303149 C1191.52098,274.428685 1201.74814,105.680611 1262.25881,105.680611 C1283.56538,105.680611 1301.46291,115.055504 1314.24685,132.953027 L1314.24685,132.100764 C1323.62175,146.589235 1332.99664,156.816391 1354.30321,156.816391 C1379.8711,156.816391 1403.73447,134.657553 1403.73447,107.385137 C1403.73447,99.7147705 1401.17768,90.3398775 1396.91636,80.9649846 C1372.20074,36.6473088 1315.95138,8.52262996 1264.8156,8.52262996 C1123.33994,8.52262996 1094.363,222.440642 1094.363,321.303149 C1094.363,426.983761 1130.15805,586.356941 1268.22465,586.356941 L1268.22465,586.356941 Z M1764.24171,63.9197247 C1764.24171,36.6473088 1746.34419,18.7497859 1719.07178,16.1929969 C1701.17425,14.4884709 1681.5722,14.4884709 1662.82242,14.4884709 L1649.18621,14.4884709 C1621.06153,14.4884709 1592.93685,14.4884709 1566.5167,17.0452599 C1557.99407,12.7839449 1548.61918,10.2271559 1540.94881,10.2271559 C1513.67639,10.2271559 1495.77887,28.1246789 1493.22208,52.8403057 C1482.99493,126.987186 1477.88135,205.395382 1473.62003,280.394526 C1468.50645,363.916299 1463.39288,449.994862 1463.39288,534.368898 C1463.39288,573.572996 1490.66529,585.504678 1522.19902,585.504678 C1557.99407,585.504678 1599.75496,584.652415 1635.55,582.947889 L1663.67468,581.243363 C1674.7541,581.243363 1684.12899,580.3911 1693.50389,579.538837 C1719.92404,576.129785 1738.67382,559.084525 1738.67382,530.959846 C1738.67382,503.68743 1717.36725,480.67633 1689.24257,482.380856 L1630.43642,484.937645 C1607.42532,486.642171 1584.41422,487.494434 1561.40312,488.346697 C1563.10765,430.392813 1564.81217,386.075137 1568.22123,329.825779 C1598.05043,331.530305 1611.68664,332.382568 1641.51584,332.382568 C1673.90184,332.382568 1713.9582,334.939357 1713.9582,283.803578 C1713.9582,254.826636 1693.50389,235.224587 1663.67468,235.224587 C1634.69774,235.224587 1603.16401,235.224587 1574.18707,233.520061 L1577.59612,199.429541 L1583.56196,113.350978 C1610.83438,110.794189 1621.91379,111.646452 1649.18621,111.646452 C1657.70884,111.646452 1673.04957,112.498715 1681.5722,112.498715 C1692.65162,113.350978 1705.43557,113.350978 1716.51499,113.350978 C1744.63967,113.350978 1764.24171,92.0444035 1764.24171,63.9197247 L1764.24171,63.9197247 Z M1892.08116,584.652415 C2002.87535,584.652415 2065.09055,501.982904 2065.09055,397.154556 C2065.09055,299.996574 2009.69346,269.315107 1958.55768,240.338165 C1924.46716,220.736116 1892.93343,201.98633 1892.93343,161.077706 C1892.93343,129.543975 1904.86511,100.567033 1938.10337,100.567033 C1947.47826,100.567033 1953.4441,103.123822 1960.2622,104.828348 C1968.78483,107.385137 1978.15973,109.089663 1985.83009,109.089663 C2013.95477,109.089663 2033.55682,84.3740366 2033.55682,59.6584097 C2033.55682,37.4995718 2019.06835,21.3065749 2000.31856,14.4884709 C1981.56878,7.67036696 1957.70541,2.55678899 1936.39884,2.55678899 C1844.35444,2.55678899 1795.77545,80.1127216 1795.77545,162.782232 C1795.77545,255.678899 1850.32028,287.21263 1900.60379,316.189571 C1936.39884,336.643883 1968.78483,355.393669 1968.78483,398.859082 C1968.78483,449.142599 1944.06921,487.494434 1892.08116,487.494434 C1879.29722,487.494434 1866.51327,484.937645 1852.0248,481.528593 L1852.87707,482.380856 C1846.91123,480.67633 1842.64991,480.67633 1840.09312,480.67633 C1811.11618,480.67633 1792.36639,504.539693 1792.36639,530.107583 C1792.36639,553.118684 1807.70713,569.311681 1829.0137,576.129785 C1848.61575,582.947889 1871.62685,584.652415 1892.08116,584.652415 L1892.08116,584.652415 Z M2196.33905,584.652415 C2307.13324,584.652415 2369.34844,501.982904 2369.34844,397.154556 C2369.34844,299.996574 2313.95135,269.315107 2262.81557,240.338165 C2228.72505,220.736116 2197.19132,201.98633 2197.19132,161.077706 C2197.19132,129.543975 2209.123,100.567033 2242.36126,100.567033 C2251.73615,100.567033 2257.70199,103.123822 2264.52009,104.828348 C2273.04272,107.385137 2282.41762,109.089663 2290.08798,109.089663 C2318.21266,109.089663 2337.81471,84.3740366 2337.81471,59.6584097 C2337.81471,37.4995718 2323.32624,21.3065749 2304.57645,14.4884709 C2285.82667,7.67036696 2261.9633,2.55678899 2240.65673,2.55678899 C2148.61233,2.55678899 2100.03333,80.1127216 2100.03333,162.782232 C2100.03333,255.678899 2154.57817,287.21263 2204.86168,316.189571 C2240.65673,336.643883 2273.04272,355.393669 2273.04272,398.859082 C2273.04272,449.142599 2248.3271,487.494434 2196.33905,487.494434 C2183.55511,487.494434 2170.77116,484.937645 2156.28269,481.528593 L2157.13496,482.380856 C2151.16911,480.67633 2146.9078,480.67633 2144.35101,480.67633 C2115.37407,480.67633 2096.62428,504.539693 2096.62428,530.107583 C2096.62428,553.118684 2111.96502,569.311681 2133.27159,576.129785 C2152.87364,582.947889 2175.88474,584.652415 2196.33905,584.652415 L2196.33905,584.652415 Z M2710.25364,63.9197247 C2710.25364,36.6473088 2692.35612,18.7497859 2665.0837,16.1929969 C2647.18618,14.4884709 2627.58413,14.4884709 2608.83434,14.4884709 L2595.19814,14.4884709 C2567.07346,14.4884709 2538.94878,14.4884709 2512.52862,17.0452599 C2504.00599,12.7839449 2494.6311,10.2271559 2486.96073,10.2271559 C2459.68832,10.2271559 2441.7908,28.1246789 2439.23401,52.8403057 C2429.00685,126.987186 2423.89327,205.395382 2419.63196,280.394526 C2414.51838,363.916299 2409.4048,449.994862 2409.4048,534.368898 C2409.4048,573.572996 2436.67722,585.504678 2468.21095,585.504678 C2504.00599,585.504678 2545.76688,584.652415 2581.56193,582.947889 L2609.68661,581.243363 C2620.76603,581.243363 2630.14092,580.3911 2639.51581,579.538837 C2665.93596,576.129785 2684.68575,559.084525 2684.68575,530.959846 C2684.68575,503.68743 2663.37917,480.67633 2635.2545,482.380856 L2576.44835,484.937645 C2553.43725,486.642171 2530.42615,487.494434 2507.41505,488.346697 C2509.11957,430.392813 2510.8241,386.075137 2514.23315,329.825779 C2544.06236,331.530305 2557.69856,332.382568 2587.52777,332.382568 C2619.91376,332.382568 2659.97012,334.939357 2659.97012,283.803578 C2659.97012,254.826636 2639.51581,235.224587 2609.68661,235.224587 C2580.70966,235.224587 2549.17593,235.224587 2520.19899,233.520061 L2523.60804,199.429541 L2529.57388,113.350978 C2556.8463,110.794189 2567.92572,111.646452 2595.19814,111.646452 C2603.72077,111.646452 2619.0615,112.498715 2627.58413,112.498715 C2638.66355,113.350978 2651.44749,113.350978 2662.52691,113.350978 C2690.65159,113.350978 2710.25364,92.0444035 2710.25364,63.9197247 L2710.25364,63.9197247 Z M2838.09309,584.652415 C2948.88728,584.652415 3011.10248,501.982904 3011.10248,397.154556 C3011.10248,299.996574 2955.70538,269.315107 2904.5696,240.338165 C2870.47908,220.736116 2838.94535,201.98633 2838.94535,161.077706 C2838.94535,129.543975 2850.87703,100.567033 2884.11529,100.567033 C2893.49018,100.567033 2899.45602,103.123822 2906.27413,104.828348 C2914.79676,107.385137 2924.17165,109.089663 2931.84202,109.089663 C2959.9667,109.089663 2979.56875,84.3740366 2979.56875,59.6584097 C2979.56875,37.4995718 2965.08028,21.3065749 2946.33049,14.4884709 C2927.5807,7.67036696 2903.71734,2.55678899 2882.41076,2.55678899 C2790.36636,2.55678899 2741.78737,80.1127216 2741.78737,162.782232 C2741.78737,255.678899 2796.3322,287.21263 2846.61572,316.189571 C2882.41076,336.643883 2914.79676,355.393669 2914.79676,398.859082 C2914.79676,449.142599 2890.08113,487.494434 2838.09309,487.494434 C2825.30914,487.494434 2812.5252,484.937645 2798.03673,481.528593 L2798.88899,482.380856 C2792.92315,480.67633 2788.66184,480.67633 2786.10505,480.67633 C2757.1281,480.67633 2738.37832,504.539693 2738.37832,530.107583 C2738.37832,553.118684 2753.71905,569.311681 2775.02563,576.129785 C2794.62768,582.947889 2817.63878,584.652415 2838.09309,584.652415 L2838.09309,584.652415 Z" id="processes" fill="#FCEFE6"></path>
    </g>
</svg>