<?xml version="1.0" encoding="UTF-8" standalone="no"?>
<svg width="3036px" height="720px" viewBox="0 0 3036 720" version="1.1" xmlns="http://www.w3.org/2000/svg" xmlns:xlink="http://www.w3.org/1999/xlink">
    <!-- Generator: Sketch Beta 39.1 (31721) - http://www.bohemiancoding.com/sketch -->
    <title>services</title>
    <desc>Created with Sketch Beta.</desc>
    <defs></defs>
    <g id="Page-1" stroke="none" stroke-width="1" fill="none" fill-rule="evenodd">
        <path d="M121.073956,710.921436 C255.600574,710.921436 331.142445,610.543882 331.142445,483.261005 C331.142445,365.291509 263.879136,328.037984 201.789927,292.854099 C160.397122,269.053236 122.108776,246.287193 122.108776,196.615827 C122.108776,158.327481 136.596258,123.143597 176.954244,123.143597 C188.337265,123.143597 195.581006,126.248057 203.859567,128.317697 C214.207769,131.422158 225.59079,133.491798 234.904172,133.491798 C269.053236,133.491798 292.854099,103.482014 292.854099,73.4722299 C292.854099,46.5669063 275.262157,26.9053236 252.496114,18.6267625 C229.730071,10.3482014 200.755107,4.13928056 174.884604,4.13928056 C63.1240285,4.13928056 4.13928056,98.3079133 4.13928056,198.685467 C4.13928056,311.480862 70.3677695,349.769207 131.422158,384.953092 C174.884604,409.788775 214.207769,432.554818 214.207769,485.330645 C214.207769,546.385034 184.197985,592.95194 121.073956,592.95194 C105.551654,592.95194 90.0293521,589.84748 72.4374098,585.708199 L73.4722299,586.743019 C66.2284889,584.673379 61.0543882,584.673379 57.9499278,584.673379 C22.7660431,584.673379 0,613.648343 0,644.692947 C0,672.633091 18.6267625,692.294673 44.497266,700.573234 C68.2981292,708.851796 96.238273,710.921436 121.073956,710.921436 L121.073956,710.921436 Z M745.0705,78.6463306 C745.0705,45.5320861 723.339278,23.8008632 690.225033,20.6964028 C668.49381,18.6267625 644.692947,18.6267625 621.926904,18.6267625 L605.369782,18.6267625 C571.220717,18.6267625 537.071652,18.6267625 504.992228,21.7312229 C494.644027,16.5571222 483.261005,13.4526618 473.947624,13.4526618 C440.833379,13.4526618 419.102156,35.1838847 415.997696,65.1936688 C403.579854,155.223021 397.370934,250.426474 392.196833,341.490646 C385.987912,442.90302 379.778991,547.419854 379.778991,649.867048 C379.778991,697.468774 412.893236,711.956256 451.181581,711.956256 C494.644027,711.956256 545.350214,710.921436 588.812659,708.851796 L622.961724,706.782155 C636.414386,706.782155 647.797407,705.747335 659.180429,704.712515 C691.259853,700.573234 714.025896,679.876832 714.025896,645.727767 C714.025896,612.613523 688.155393,584.673379 654.006328,586.743019 L582.603739,589.84748 C554.663595,591.91712 526.723451,592.95194 498.783307,593.98676 C500.852948,523.618991 502.922588,469.808343 507.061868,401.510214 C543.280573,403.579854 559.837695,404.614675 596.0564,404.614675 C635.379566,404.614675 684.016112,407.719135 684.016112,345.629927 C684.016112,310.446042 659.180429,286.645179 622.961724,286.645179 C587.777839,286.645179 549.489494,286.645179 514.305609,284.575538 L518.44489,243.182733 L525.688631,138.665899 C558.802875,135.561438 572.255537,136.596258 605.369782,136.596258 C615.717983,136.596258 634.344746,137.631079 644.692947,137.631079 C658.145609,138.665899 673.667911,138.665899 687.120573,138.665899 C721.269637,138.665899 745.0705,112.795395 745.0705,78.6463306 L745.0705,78.6463306 Z M1227.29669,657.110789 C1227.29669,644.692947 1223.1574,634.344746 1217.9833,622.961724 L1193.14762,586.743019 C1187.97352,580.534098 1183.83424,570.185897 1178.66014,563.976976 L1179.69496,565.011796 C1133.12805,495.678847 1082.42187,427.380718 1022.4023,366.326329 C1086.56115,323.898704 1139.33697,261.809495 1139.33697,177.989064 C1139.33697,38.2883452 991.357694,1.03482014 881.666759,1.03482014 C846.482874,1.03482014 799.915968,2.06964028 801.985608,60.0195681 C803.020428,120.039136 806.124889,181.093524 808.194529,239.043452 C811.298989,343.560286 814.40345,447.0423 814.40345,551.559134 C814.40345,565.011796 813.36863,579.499278 813.36863,593.98676 C813.36863,614.683163 812.33381,636.414386 813.36863,657.110789 C816.47309,691.259853 836.134673,714.025896 873.388198,714.025896 C909.606903,714.025896 929.268485,692.294673 932.372946,658.145609 C933.407766,636.414386 932.372946,609.509062 932.372946,584.673379 L932.372946,441.8682 C975.835392,485.330645 1022.4023,545.350214 1058.621,597.09122 L1089.66561,644.692947 L1089.66561,643.658127 C1098.97899,660.215249 1111.39683,677.807191 1121.74503,692.294673 C1133.12805,707.816975 1145.54589,718.165177 1167.27712,718.165177 C1199.35654,718.165177 1227.29669,688.155393 1227.29669,657.110789 L1227.29669,657.110789 Z M1021.36748,177.989064 C1021.36748,224.55597 974.800571,259.739855 929.268485,282.505898 C927.198845,219.38187 926.164025,180.058704 924.094385,121.073956 C965.48719,126.248057 1021.36748,139.700719 1021.36748,177.989064 L1021.36748,177.989064 Z M1458.06158,714.025896 C1490.141,714.025896 1519.11596,694.364314 1525.32489,660.215249 C1557.40431,467.738703 1592.58819,261.809495 1624.66762,69.3329493 C1625.70244,65.1936688 1625.70244,62.0892084 1625.70244,56.9151077 C1625.70244,24.8356833 1598.79712,0 1565.68287,0 C1534.63827,0 1512.90704,19.6615827 1507.73294,49.6713667 L1444.60891,432.554818 C1411.49467,325.968344 1405.28575,298.0282 1379.41525,190.406906 C1371.13668,159.362301 1365.96258,129.352517 1358.71884,98.3079133 C1357.68402,93.1338126 1355.61438,88.994532 1354.57956,80.7159709 C1353.54474,69.3329493 1352.50992,60.0195681 1346.301,40.3579854 C1336.98762,16.5571222 1323.53496,0 1289.38589,0 C1257.30647,0 1231.43597,23.8008632 1231.43597,56.9151077 C1231.43597,61.0543882 1231.43597,65.1936688 1232.47079,69.3329493 C1236.61007,95.2034528 1241.78417,121.073956 1247.99309,146.94446 C1261.44575,206.964028 1276.96805,265.948776 1291.45553,323.898704 C1313.18676,403.579854 1335.9528,483.261005 1359.75366,561.907336 L1359.75366,560.872516 L1373.20633,606.404602 C1380.45007,626.066184 1385.62417,649.867048 1392.86791,670.56345 C1404.25093,698.503594 1430.12143,714.025896 1458.06158,714.025896 L1458.06158,714.025896 Z M1729.18445,719.199997 C1766.43798,719.199997 1785.06474,697.468774 1788.1692,663.319709 C1790.23884,649.867048 1789.20402,632.275105 1789.20402,617.787623 L1789.20402,605.369782 C1790.23884,582.603739 1790.23884,559.837695 1790.23884,537.071652 C1790.23884,515.340429 1791.27366,491.539566 1791.27366,469.808343 C1792.30848,383.918272 1796.44776,292.854099 1799.55222,206.964028 C1800.58704,162.466762 1801.62186,116.934676 1802.65668,71.4025896 C1802.65668,34.1490646 1775.75136,10.3482014 1743.67194,10.3482014 C1707.45323,10.3482014 1690.89611,32.0794243 1684.68719,65.1936688 C1682.61755,81.750791 1682.61755,103.482014 1682.61755,122.108776 C1682.61755,127.282877 1681.58273,135.561438 1681.58273,140.735539 C1679.51309,181.093524 1677.44345,232.834531 1676.40863,274.227337 C1674.33899,350.804027 1673.30417,448.07712 1672.26935,525.688631 C1671.23453,570.185897 1670.19971,614.683163 1670.19971,660.215249 C1670.19971,695.399134 1694.00057,719.199997 1729.18445,719.199997 L1729.18445,719.199997 Z M2067.57064,712.991076 C2171.05265,712.991076 2221.75884,632.275105 2248.66416,545.350214 C2251.76862,540.176113 2253.83826,530.862732 2253.83826,524.653811 C2253.83826,491.539566 2223.82848,466.703883 2192.78388,466.703883 C2162.77409,466.703883 2147.25179,483.261005 2137.93841,507.061868 L2133.79913,518.44489 L2133.79913,517.41007 C2120.34647,553.628775 2104.82416,595.02158 2067.57064,595.02158 C2055.1528,595.02158 2042.73496,590.8823 2032.38675,582.603739 C1983.75021,543.280573 1974.43683,452.216401 1974.43683,391.162013 C1974.43683,334.246905 1986.85467,129.352517 2060.3269,129.352517 C2086.1974,129.352517 2107.92862,140.735539 2123.45093,162.466762 L2123.45093,161.431942 C2134.83395,179.023884 2146.21697,191.441726 2172.08747,191.441726 C2203.13208,191.441726 2232.10704,164.536402 2232.10704,131.422158 C2232.10704,122.108776 2229.00258,110.725755 2223.82848,99.3427334 C2193.8187,45.5320861 2125.52057,11.3830215 2063.43136,11.3830215 C1891.65121,11.3830215 1856.46733,271.122877 1856.46733,391.162013 C1856.46733,519.47971 1899.92978,712.991076 2067.57064,712.991076 L2067.57064,712.991076 Z M2669.83596,78.6463306 C2669.83596,45.5320861 2648.10474,23.8008632 2614.99049,20.6964028 C2593.25927,18.6267625 2569.45841,18.6267625 2546.69236,18.6267625 L2530.13524,18.6267625 C2495.98618,18.6267625 2461.83711,18.6267625 2429.75769,21.7312229 C2419.40949,16.5571222 2408.02646,13.4526618 2398.71308,13.4526618 C2365.59884,13.4526618 2343.86762,35.1838847 2340.76316,65.1936688 C2328.34531,155.223021 2322.13639,250.426474 2316.96229,341.490646 C2310.75337,442.90302 2304.54445,547.419854 2304.54445,649.867048 C2304.54445,697.468774 2337.6587,711.956256 2375.94704,711.956256 C2419.40949,711.956256 2470.11567,710.921436 2513.57812,708.851796 L2547.72718,706.782155 C2561.17985,706.782155 2572.56287,705.747335 2583.94589,704.712515 C2616.02531,700.573234 2638.79136,679.876832 2638.79136,645.727767 C2638.79136,612.613523 2612.92085,584.673379 2578.77179,586.743019 L2507.3692,589.84748 C2479.42905,591.91712 2451.48891,592.95194 2423.54877,593.98676 C2425.61841,523.618991 2427.68805,469.808343 2431.82733,401.510214 C2468.04603,403.579854 2484.60315,404.614675 2520.82186,404.614675 C2560.14503,404.614675 2608.78157,407.719135 2608.78157,345.629927 C2608.78157,310.446042 2583.94589,286.645179 2547.72718,286.645179 C2512.5433,286.645179 2474.25495,286.645179 2439.07107,284.575538 L2443.21035,243.182733 L2450.45409,138.665899 C2483.56833,135.561438 2497.021,136.596258 2530.13524,136.596258 C2540.48344,136.596258 2559.1102,137.631079 2569.45841,137.631079 C2582.91107,138.665899 2598.43337,138.665899 2611.88603,138.665899 C2646.0351,138.665899 2669.83596,112.795395 2669.83596,78.6463306 L2669.83596,78.6463306 Z M2825.05898,710.921436 C2959.5856,710.921436 3035.12747,610.543882 3035.12747,483.261005 C3035.12747,365.291509 2967.86416,328.037984 2905.77495,292.854099 C2864.38215,269.053236 2826.0938,246.287193 2826.0938,196.615827 C2826.0938,158.327481 2840.58128,123.143597 2880.93927,123.143597 C2892.32229,123.143597 2899.56603,126.248057 2907.84459,128.317697 C2918.19279,131.422158 2929.57581,133.491798 2938.8892,133.491798 C2973.03826,133.491798 2996.83912,103.482014 2996.83912,73.4722299 C2996.83912,46.5669063 2979.24718,26.9053236 2956.48114,18.6267625 C2933.7151,10.3482014 2904.74013,4.13928056 2878.86963,4.13928056 C2767.10905,4.13928056 2708.12431,98.3079133 2708.12431,198.685467 C2708.12431,311.480862 2774.35279,349.769207 2835.40718,384.953092 C2878.86963,409.788775 2918.19279,432.554818 2918.19279,485.330645 C2918.19279,546.385034 2888.18301,592.95194 2825.05898,592.95194 C2809.53668,592.95194 2794.01438,589.84748 2776.42243,585.708199 L2777.45725,586.743019 C2770.21351,584.673379 2765.03941,584.673379 2761.93495,584.673379 C2726.75107,584.673379 2703.98502,613.648343 2703.98502,644.692947 C2703.98502,672.633091 2722.61179,692.294673 2748.48229,700.573234 C2772.28315,708.851796 2800.2233,710.921436 2825.05898,710.921436 L2825.05898,710.921436 Z" id="services" fill="#FCEFE6"></path>
    </g>
</svg>